<svg width="20" height="20" viewBox="0 0 20 20" fill="none" xmlns="http://www.w3.org/2000/svg">
<path d="M17.8656 0H2.2152C1.03697 0 0.0810547 0.95592 0.0810547 2.13415V17.7846C0.0810547 18.9628 1.03697 19.9187 2.2152 19.9187H17.8656C19.0438 19.9187 19.9998 18.9628 19.9998 17.7846V2.13415C19.9998 0.95592 19.0438 0 17.8656 0ZM12.4102 17.0598C12.0367 17.1265 11.8989 16.8953 11.8989 16.7041C11.8989 16.464 11.9078 15.2369 11.9078 14.2454C11.9078 13.5518 11.6766 13.1117 11.4054 12.8805C13.0504 12.6982 14.7844 12.4714 14.7844 9.63034C14.7844 8.82114 14.4954 8.41654 14.0241 7.89634C14.0997 7.70516 14.3532 6.91819 13.9486 5.89558C13.3305 5.7044 11.9167 6.69144 11.9167 6.69144C11.3298 6.52693 10.694 6.44245 10.0671 6.44245C9.44018 6.44245 8.80438 6.52693 8.21749 6.69144C8.21749 6.69144 6.80362 5.7044 6.1856 5.89558C5.781 6.91374 6.02999 7.70071 6.11002 7.89634C5.63873 8.41654 5.41642 8.82114 5.41642 9.63034C5.41642 12.4581 7.07483 12.6982 8.7199 12.8805C8.50649 13.0716 8.3153 13.4007 8.24861 13.872C7.82623 14.0631 6.74582 14.3921 6.10113 13.2539C5.69653 12.5514 4.96736 12.4936 4.96736 12.4936C4.24709 12.4848 4.91845 12.9472 4.91845 12.9472C5.39864 13.1695 5.73654 14.0231 5.73654 14.0231C6.16782 15.3436 8.23083 14.899 8.23083 14.899C8.23083 15.517 8.23972 16.5218 8.23972 16.7041C8.23972 16.8953 8.10633 17.1265 7.72841 17.0598C4.79396 16.0772 2.73985 13.2851 2.73985 10.0216C2.73985 5.94004 5.86103 2.84108 9.94259 2.84108C14.0241 2.84108 17.3321 5.94004 17.3321 10.0216C17.3365 13.2851 15.3446 16.0817 12.4102 17.0598ZM8.04853 14.3432C7.96406 14.361 7.88403 14.3255 7.87513 14.2677C7.86624 14.201 7.92404 14.1432 8.00852 14.1254C8.093 14.1165 8.17303 14.1521 8.18192 14.2099C8.19526 14.2677 8.13746 14.3255 8.04853 14.3432ZM7.62615 14.3032C7.62615 14.361 7.55946 14.4099 7.47054 14.4099C7.37272 14.4188 7.30603 14.3699 7.30603 14.3032C7.30603 14.2454 7.37272 14.1965 7.46164 14.1965C7.54612 14.1876 7.62615 14.2365 7.62615 14.3032ZM7.01703 14.2543C6.99925 14.3121 6.91032 14.3388 6.83474 14.3121C6.75026 14.2943 6.69246 14.2276 6.71025 14.1698C6.72803 14.112 6.81695 14.0854 6.89254 14.1032C6.98146 14.1298 7.03926 14.1965 7.01703 14.2543ZM6.47015 14.0142C6.43014 14.0631 6.34566 14.0542 6.27897 13.9876C6.21228 13.9298 6.19449 13.8453 6.23896 13.8053C6.27897 13.7564 6.36345 13.7652 6.43014 13.8319C6.48794 13.8897 6.51017 13.9787 6.47015 14.0142ZM6.06556 13.6096C6.02554 13.6363 5.94996 13.6096 5.90105 13.5429C5.85214 13.4762 5.85214 13.4007 5.90105 13.3695C5.94996 13.3295 6.02554 13.3606 6.06556 13.4273C6.11446 13.494 6.11446 13.5741 6.06556 13.6096V13.6096ZM5.77656 13.1784C5.73654 13.2184 5.66985 13.1961 5.62094 13.1517C5.57204 13.0939 5.56314 13.0272 5.60316 12.9961C5.64317 12.956 5.70987 12.9783 5.75877 13.0227C5.80768 13.0805 5.81657 13.1472 5.77656 13.1784ZM5.47867 12.8493C5.46088 12.8894 5.40308 12.8982 5.35417 12.8671C5.29637 12.8404 5.2697 12.7915 5.28748 12.7515C5.30527 12.7248 5.35417 12.7115 5.41197 12.7337C5.46977 12.7649 5.49645 12.8138 5.47867 12.8493Z" fill="black"/>
</svg>
