<svg width="20" height="20" viewBox="0 0 20 20" fill="none" xmlns="http://www.w3.org/2000/svg">
<path d="M9.95935 4.03709C6.72701 4.03709 4.09934 6.66476 4.09489 9.8971C4.09489 11.0042 4.40612 12.0846 4.99301 13.0138L5.13084 13.2362L4.53951 15.397L6.75813 14.8145L6.97154 14.9435C7.86966 15.477 8.90117 15.7616 9.9549 15.7616H9.95935C13.1872 15.7616 15.8861 13.1339 15.8861 9.90155C15.8861 8.33651 15.2102 6.86484 14.1032 5.75775C12.9916 4.64621 11.5244 4.03709 9.95935 4.03709ZM13.4051 12.4136C13.2584 12.8271 12.5559 13.2006 12.218 13.2495C11.6578 13.334 11.2221 13.2895 10.1061 12.8093C8.34096 12.0446 7.18496 10.2661 7.09604 10.1505C7.00711 10.0349 6.37576 9.19461 6.37576 8.32762C6.37576 7.46062 6.82927 7.03379 6.99378 6.85594C7.15384 6.6781 7.34502 6.63364 7.46507 6.63364C7.58067 6.63364 7.70071 6.63364 7.80297 6.63808C7.90968 6.64253 8.0564 6.59807 8.19868 6.94042C8.3454 7.29167 8.69665 8.15866 8.74111 8.24759C8.78557 8.33651 8.81669 8.43877 8.75445 8.55437C8.41654 9.23018 8.0564 9.20351 8.23869 9.51474C8.91895 10.6841 9.59921 11.0887 10.6352 11.6089C10.813 11.6978 10.9153 11.6845 11.0175 11.5644C11.1198 11.4488 11.4577 11.0487 11.5733 10.8753C11.6889 10.6974 11.8089 10.7285 11.969 10.7863C12.1291 10.8441 12.9961 11.271 13.1739 11.3599C13.3518 11.4488 13.4674 11.4933 13.5118 11.5644C13.5518 11.6489 13.5518 12.0046 13.4051 12.4136V12.4136ZM17.7846 0H2.13415C0.95592 0 0 0.95592 0 2.13415V17.7846C0 18.9628 0.95592 19.9187 2.13415 19.9187H17.7846C18.9628 19.9187 19.9187 18.9628 19.9187 17.7846V2.13415C19.9187 0.95592 18.9628 0 17.7846 0ZM9.9549 16.9487C8.77223 16.9487 7.61179 16.6508 6.58473 16.0906L2.84553 17.0732L3.84591 13.4184C3.2279 12.3514 2.90333 11.1376 2.90333 9.89266C2.90777 6.00673 6.06898 2.84553 9.9549 2.84553C11.8401 2.84553 13.6096 3.57914 14.9435 4.91298C16.2729 6.24682 17.0732 8.01639 17.0732 9.90155C17.0732 13.7875 13.8408 16.9487 9.9549 16.9487Z" fill="black"/>
</svg>
